<?xml version="1.0" encoding="UTF-8" standalone="no"?>
<svg
   xmlns:dc="http://purl.org/dc/elements/1.1/"
   xmlns:cc="http://creativecommons.org/ns#"
   xmlns:rdf="http://www.w3.org/1999/02/22-rdf-syntax-ns#"
   xmlns:svg="http://www.w3.org/2000/svg"
   xmlns="http://www.w3.org/2000/svg"
   viewBox="0 0 1333.3333 1066.6667"
   height="100"
   width="100"
   xml:space="preserve"
   id="svg2"
   version="1.1"><metadata
     id="metadata8"><rdf:RDF><cc:Work
         rdf:about=""><dc:format>image/svg+xml</dc:format><dc:type
           rdf:resource="http://purl.org/dc/dcmitype/StillImage" /></cc:Work></rdf:RDF></metadata><defs
     id="defs6" /><g
     transform="matrix(1.3333333,0,0,-1.3333333,0,1066.6667)"
     id="g10"><g
       transform="scale(0.1)"
       id="g12"><path
         id="path14"
         style="fill:#211c1d;fill-opacity:1;fill-rule:nonzero;stroke:none"
         d="m 4103.25,4074.73 -43.03,-15.19 43.03,-78.45 c 0,0 -126.54,121.48 -156.9,167.03 -30.37,45.55 -210.05,235.35 -220.17,308.74 -10.13,73.39 -88.57,331.51 -88.57,331.51 L 3748.96,4441.67 3893.2,4262 c 0,0 0,0 40.49,75.92 40.49,75.92 83.51,313.8 83.51,313.8 2.54,-121.47 -43.02,-266.99 -43.02,-266.99 0,0 73.39,-56.94 75.92,-120.2 2.53,-63.27 53.15,-144.25 53.15,-144.25 z m 832.58,-1394.39 c -101.23,27.83 -144.24,35.42 -217.63,98.69 -73.39,63.27 -126.53,93.64 -139.19,177.15 -12.65,83.51 91.1,599.76 75.92,711.11 -15.18,111.35 -15.18,285.97 -167.02,323.93 l -91.11,17.71 c 0,0 32.9,55.68 -30.36,91.1 -63.27,35.43 -88.58,68.33 -227.76,0 0,0 73.39,55.68 139.18,68.33 0,0 -12.65,91.11 -35.43,161.96 -22.77,70.86 -106.28,265.72 -141.71,354.3 -35.43,88.57 -58.21,248 -93.64,250.53 -35.43,2.53 -93.63,-17.71 -154.37,78.45 0,0 52.88,-58.47 107.55,-62 0.46,-0.03 0.92,-0.06 1.37,-0.08 27.33,-1.65 53.78,8.2 74.78,25.76 9.63,8.06 23.71,15.32 36.47,23.67 12.71,8.31 40.49,-15.19 43.02,0 2.53,15.18 12.65,96.16 30.37,113.88 17.71,17.71 144.25,83.51 141.71,179.67 0,0 53.15,-5.06 53.15,75.92 0,80.99 -45.55,199.93 -177.15,253.07 -131.59,53.14 -220.17,65.8 -308.74,12.65 C 3766.67,5583 3711,5269.2 3602.18,5205.93 c -108.82,-63.26 116.41,-220.17 184.73,-245.47 0,0 -210.04,68.33 -250.53,174.61 0,0 -126.26,27.84 -211.17,-15.18 -84.92,-43.02 -109.95,-334.05 0,-528.91 109.94,-194.86 191.51,-288.87 219.35,-326.83 27.84,-37.96 227.17,-217.26 282.85,-237.5 55.67,-20.25 194.86,-139.19 235.34,-146.78 40.5,-7.59 63.27,-25.31 129.07,12.65 65.8,37.96 91.1,90.96 91.1,107.48 0,16.52 -73.38,72.2 -161.96,67.14 0,0 113.88,22.77 174.62,-45.56 0,0 15.18,-40.49 2.53,-50.61 -12.66,-10.12 -63.27,-129.06 -202.46,-121.47 0,0 -75.91,5.06 -141.71,60.73 -65.8,55.68 -151.84,55.68 -151.84,55.68 l -7.59,48.08 c 0,0 -261.56,188.62 -415.03,427.68 -131.59,204.99 -151.84,344.17 -151.84,452.99 0,0 -7.59,-488.42 -55.68,-607.36 -48.08,-118.94 -151.83,-313.8 -268.24,-447.92 -116.42,-134.13 -331.52,-506.14 -460.59,-604.83 -129.06,-98.7 -427.68,-225.23 -620,-564.34 0,0 -63.27,-25.3 -73.39,-63.26 -10.13,-37.96 -50.62,-78.45 -78.46,-106.29 -27.83,-27.84 -27.83,-101.23 0,-139.19 27.84,-37.96 197.4,-37.96 215.11,-20.24 17.72,17.71 -40.49,135.31 -40.49,158.76 0,23.44 265.72,185.41 354.29,233.49 88.57,48.08 159.43,146.78 207.52,179.68 48.08,32.89 334.04,106.28 445.39,232.82 111.35,126.53 490.95,285.96 539.03,313.8 48.08,27.84 220.17,225.23 220.17,225.23 0,0 -131.6,-207.52 -182.21,-253.07 0,0 417.56,37.96 526.38,63.27 108.82,25.3 392.25,149.31 437.8,177.14 45.55,27.84 78.45,50.62 78.45,50.62 0,0 -70.85,-78.45 -121.47,-96.17 -50.61,-17.71 -20.24,-232.82 -2.53,-316.33 17.72,-83.51 55.67,-248.01 22.77,-422.62 -32.89,-174.62 -37.95,-235.35 -7.58,-250.54 30.36,-15.18 131.59,-17.71 232.81,2.53 101.23,20.25 270.78,-48.08 339.11,-35.42 68.33,12.65 101.23,48.08 0,75.92" /><path
         id="path16"
         style="fill:#211c1d;fill-opacity:1;fill-rule:nonzero;stroke:none"
         d="m 5896.76,4120.28 c 0,0 50.61,80.98 53.14,144.25 2.54,63.26 75.93,120.2 75.93,120.2 0,0 -45.56,145.52 -43.03,266.99 0,0 43.03,-237.88 83.51,-313.8 40.5,-75.92 40.5,-75.92 40.5,-75.92 l 144.24,179.67 111.35,346.7 c 0,0 -78.45,-258.12 -88.57,-331.51 -10.12,-73.39 -189.8,-263.19 -220.17,-308.74 -30.37,-45.55 -156.9,-167.03 -156.9,-167.03 l 43.02,78.45 -43.02,15.19 z M 5064.17,2604.42 c 68.33,-12.66 237.89,55.67 339.11,35.42 101.23,-20.24 202.45,-17.71 232.82,-2.53 30.37,15.19 25.31,75.92 -7.59,250.54 -32.9,174.61 5.06,339.11 22.77,422.62 17.72,83.51 48.09,298.62 -2.53,316.33 -50.61,17.72 -121.46,96.17 -121.46,96.17 0,0 32.89,-22.78 78.44,-50.62 45.55,-27.83 328.99,-151.84 437.81,-177.14 108.82,-25.31 526.38,-63.27 526.38,-63.27 -50.62,45.55 -182.21,253.07 -182.21,253.07 0,0 172.08,-197.39 220.17,-225.23 48.08,-27.84 427.68,-187.27 539.02,-313.8 111.35,-126.54 397.32,-199.93 445.4,-232.82 48.09,-32.9 118.94,-131.6 207.51,-179.68 88.58,-48.08 354.3,-210.05 354.3,-233.49 0,-23.45 -58.21,-141.05 -40.49,-158.76 17.71,-17.72 187.26,-17.72 215.1,20.24 27.84,37.96 27.84,111.35 0,139.19 -27.84,27.84 -68.32,68.33 -78.45,106.29 -10.12,37.96 -73.39,63.26 -73.39,63.26 -192.33,339.11 -490.94,465.64 -620.01,564.34 -129.06,98.69 -344.17,470.7 -460.58,604.83 -116.41,134.12 -220.17,328.98 -268.25,447.92 -48.08,118.94 -55.67,607.36 -55.67,607.36 0,-108.82 -20.25,-248 -151.84,-452.99 -153.47,-239.06 -415.03,-427.68 -415.03,-427.68 l -7.59,-48.08 c 0,0 -86.04,0 -151.84,-55.68 -65.8,-55.67 -141.72,-60.73 -141.72,-60.73 -139.18,-7.59 -189.8,111.35 -202.45,121.47 -12.65,10.12 2.53,50.61 2.53,50.61 60.74,68.33 174.62,45.56 174.62,45.56 -88.58,5.06 -161.97,-50.62 -161.97,-67.14 0,-16.52 25.31,-69.52 91.11,-107.48 65.79,-37.96 88.57,-20.24 129.06,-12.65 40.49,7.59 179.68,126.53 235.35,146.78 55.68,20.24 255.01,199.54 282.85,237.5 27.84,37.96 109.4,131.97 219.35,326.83 109.95,194.86 84.92,485.89 0,528.91 -84.91,43.02 -211.17,15.18 -211.17,15.18 -40.5,-106.28 -250.54,-174.61 -250.54,-174.61 68.33,25.3 293.56,182.21 184.74,245.47 -108.82,63.27 -164.49,377.07 -253.06,430.21 -88.58,53.15 -177.15,40.49 -308.74,-12.65 -131.6,-53.14 -177.15,-172.08 -177.15,-253.07 0,-80.98 53.14,-75.92 53.14,-75.92 -2.53,-96.16 124.01,-161.96 141.72,-179.67 17.72,-17.72 27.84,-98.7 30.37,-113.88 2.53,-15.19 30.31,8.31 43.02,0 12.75,-8.35 26.84,-15.61 36.47,-23.67 20.99,-17.56 47.45,-27.41 74.77,-25.76 0.46,0.02 0.91,0.05 1.37,0.08 54.68,3.53 107.55,62 107.55,62 -60.73,-96.16 -118.94,-75.92 -154.37,-78.45 -35.42,-2.53 -58.2,-161.96 -93.63,-250.53 -35.43,-88.58 -118.94,-283.44 -141.72,-354.3 -22.77,-70.85 -35.43,-161.96 -35.43,-161.96 65.8,-12.65 139.19,-68.33 139.19,-68.33 -139.19,68.33 -164.49,35.43 -227.76,0 -63.26,-35.42 -30.37,-91.1 -30.37,-91.1 l -91.1,-17.71 c -151.84,-37.96 -151.84,-212.58 -167.02,-323.93 -15.19,-111.35 88.57,-627.6 75.92,-711.11 -12.66,-83.51 -65.8,-113.88 -139.19,-177.15 -73.39,-63.27 -116.41,-70.86 -217.64,-98.69 -101.22,-27.84 -68.33,-63.27 0,-75.92" /></g></g></svg>
